<svg xmlns="http://www.w3.org/2000/svg" viewBox="0 0 24 24" width="24" height="24" color="#d0021b" fill="none">
    <defs />
    <path fill="#d0021b" d="M7.3,20.75 C6.16,20.75 5.3,19.88 4.96,19.54 C4.5,19.08 3.1,17.69 4.11,15.95 C4.28,15.65 4.52,15.41 4.96,14.97 L6.71,13.22 C7.28,12.65 7.73,12.2 7.73,12 C7.73,11.8 7.28,11.35 6.71,10.78 L4.95,9.02 C4.51,8.58 4.27,8.34 4.1,8.04 C3.1,6.3 4.49,4.91 4.95,4.45 C5.41,3.99 6.8,2.59 8.54,3.6 C8.84,3.77 9.08,4.01 9.52,4.45 L11.27,6.2 C11.84,6.77 12.29,7.22 12.49,7.22 C12.69,7.22 13.14,6.77 13.71,6.2 L15.46,4.45 C15.9,4.01 16.14,3.77 16.44,3.6 C18.17,2.6 19.57,3.99 20.03,4.45 C20.49,4.91 21.89,6.3 20.88,8.04 C20.71,8.34 20.47,8.58 20.03,9.02 L18.28,10.77 C17.71,11.34 17.26,11.79 17.26,11.99 C17.26,12.19 17.71,12.64 18.28,13.21 L20.03,14.96 C20.47,15.4 20.71,15.64 20.88,15.94 C21.88,17.68 20.49,19.07 20.03,19.53 C19.57,19.99 18.18,21.39 16.44,20.38 C16.14,20.21 15.9,19.97 15.46,19.53 L13.71,17.78 C13.14,17.21 12.69,16.76 12.49,16.76 C12.29,16.76 11.84,17.21 11.27,17.78 L9.52,19.53 C9.08,19.97 8.84,20.21 8.54,20.38 C8.1,20.63 7.68,20.73 7.3,20.73 L7.3,20.75 Z M7.3,4.75 C6.97,4.75 6.58,4.95 6.02,5.51 C5.15,6.38 5.14,6.83 5.4,7.29 C5.47,7.42 5.68,7.62 6.01,7.96 L7.76,9.71 C8.67,10.62 9.22,11.17 9.22,11.99 C9.22,12.81 8.67,13.36 7.76,14.27 L6.01,16.02 C5.67,16.36 5.47,16.56 5.39,16.69 C5.13,17.15 5.14,17.6 6,18.47 C6.87,19.34 7.32,19.35 7.78,19.09 C7.91,19.02 8.11,18.81 8.45,18.48 L10.2,16.73 C11.11,15.82 11.66,15.27 12.48,15.27 C13.3,15.27 13.85,15.82 14.76,16.73 L16.51,18.48 C16.85,18.82 17.05,19.02 17.18,19.1 C17.64,19.36 18.09,19.35 18.96,18.49 C19.83,17.62 19.84,17.17 19.58,16.71 C19.51,16.58 19.3,16.38 18.97,16.04 L17.22,14.29 C16.31,13.38 15.76,12.83 15.76,12.01 C15.76,11.19 16.31,10.64 17.22,9.73 L18.98,7.97 C19.32,7.63 19.52,7.43 19.6,7.3 C19.86,6.84 19.85,6.39 18.99,5.52 C18.12,4.65 17.67,4.64 17.21,4.9 C17.08,4.97 16.88,5.18 16.54,5.51 L14.79,7.26 C13.88,8.17 13.33,8.72 12.51,8.72 C11.69,8.72 11.14,8.17 10.23,7.26 L8.48,5.51 C8.14,5.17 7.94,4.97 7.81,4.89 C7.65,4.8 7.49,4.74 7.31,4.74 L7.3,4.75 Z" />
</svg>