<svg xmlns="http://www.w3.org/2000/svg" viewBox="0 0 24 24" width="24" height="24" color="#7ed321" fill="none">
    <defs />
    <path fill="#7ed321" d="M17.159,4.022 C18.677,2.763 20.899,3.095 22.056,4.647 C23.145,6.109 22.937,8.182 21.535,9.37 C20.66,10.112 19.832,10.799 19.038,11.456 C16.486,13.572 14.29,15.392 12.022,17.818 L11.987,17.856 C11.175,18.725 10.518,19.428 9.946,19.907 C9.362,20.395 8.747,20.757 8.015,20.75 C7.294,20.744 6.702,20.397 6.145,19.921 C5.606,19.46 5,18.788 4.258,17.965 L2.159,15.636 C1.079,14.439 0.948,12.658 1.838,11.314 C3.113,9.389 5.855,9.197 7.383,10.927 L8.673,12.387 C11.158,9.516 13.785,6.821 17.159,4.022 Z M20.853,5.543 C20.186,4.648 18.943,4.491 18.116,5.177 C14.807,7.922 12.233,10.564 9.784,13.396 C9.775,13.406 9.766,13.417 9.756,13.429 C9.663,13.538 9.523,13.702 9.354,13.808 C8.942,14.066 8.422,14.069 8.008,13.815 C7.838,13.711 7.696,13.549 7.604,13.443 C7.594,13.431 7.584,13.42 7.575,13.41 L6.259,11.92 C5.385,10.931 3.819,11.039 3.089,12.142 C2.576,12.916 2.652,13.943 3.273,14.632 L5.337,16.921 C6.123,17.793 6.664,18.391 7.12,18.781 C7.566,19.163 7.823,19.249 8.029,19.25 C8.223,19.252 8.492,19.168 8.983,18.757 C9.476,18.344 10.071,17.71 10.926,16.794 C13.266,14.291 15.556,12.394 18.126,10.263 C18.91,9.614 19.72,8.943 20.565,8.226 C21.35,7.561 21.48,6.384 20.853,5.543 Z" />
</svg>